<?xml version="1.0" encoding="UTF-8"?>
<svg version="1.1" xmlns="http://www.w3.org/2000/svg" width="512" height="512">
<path d="M0 0 C168.96 0 337.92 0 512 0 C512 168.96 512 337.92 512 512 C343.04 512 174.08 512 0 512 C0 343.04 0 174.08 0 0 Z " fill="#4383F2" transform="translate(0,0)"/>
<path d="M0 0 C51.15 0 102.3 0 155 0 C155 15.18 155 30.36 155 46 C161.34693279 40.48553232 161.34693279 40.48553232 167.38061523 34.71704102 C168.51605019 33.57665123 168.51605019 33.57665123 169.67442322 32.41322327 C170.46119949 31.61814865 171.24797577 30.82307404 172.05859375 30.00390625 C172.8883522 29.17036118 173.71811066 28.3368161 174.57301331 27.47801208 C177.19696492 24.84193653 179.81762285 22.20262462 182.4375 19.5625 C185.91253974 16.06097896 189.3908037 12.56270792 192.87109375 9.06640625 C193.67203964 8.25716202 194.47298553 7.44791779 195.29820251 6.614151 C196.03309402 5.87595627 196.76798553 5.13776154 197.52514648 4.37719727 C198.49821999 3.39626854 198.49821999 3.39626854 199.49095154 2.39552307 C201 1 201 1 202 1 C202 81.85 202 162.7 202 246 C135.34 246 68.68 246 0 246 C0 164.82 0 83.64 0 0 Z " fill="#FEFEFE" transform="translate(155,133)"/>
<path d="M0 0 C15.18 0 30.36 0 46 0 C44.17097843 3.65804313 42.77014854 5.48253896 39.94921875 8.30957031 C39.11495361 9.15013977 38.28068848 9.99070923 37.42114258 10.85675049 C36.51904053 11.75480408 35.61693848 12.65285767 34.6875 13.578125 C33.76283936 14.5046991 32.83817871 15.43127319 31.88549805 16.38592529 C29.93178301 18.3425837 27.97450889 20.29559143 26.01464844 22.24609375 C23.49915795 24.75015854 20.99279451 27.26313724 18.48899841 29.7788887 C16.1016736 32.17515944 13.70677812 34.5638015 11.3125 36.953125 C9.95934692 38.31235077 9.95934692 38.31235077 8.57885742 39.69903564 C7.74459229 40.52699646 6.91032715 41.35495728 6.05078125 42.20800781 C4.94730347 43.30909882 4.94730347 43.30909882 3.8215332 44.43243408 C2 46 2 46 0 46 C0 30.82 0 15.64 0 0 Z " fill="#2466C8" transform="translate(310,133)"/>
</svg>
